<svg width="169" height="74" viewBox="0 0 169 74" fill="none" xmlns="http://www.w3.org/2000/svg">
<path d="M0.401855 42.3062L4.79199 40.2057C7.20503 39.0511 10.0808 39.511 12.0135 41.3604L13.0019 42.3062C15.3508 44.554 19.053 44.554 21.4019 42.3062V42.3062C23.7508 40.0585 27.453 40.0585 29.8019 42.3062V42.3062C32.1508 44.554 35.853 44.554 38.2019 42.3062V42.3062C40.5508 40.0585 44.253 40.0585 46.6019 42.3062V42.3062C48.9508 44.554 52.653 44.554 55.0019 42.3062V42.3062C57.3508 40.0585 61.053 40.0585 63.4019 42.3062V42.3062C65.7508 44.554 69.453 44.554 71.8019 42.3062V42.3062C74.1508 40.0585 77.853 40.0585 80.2019 42.3062V42.3062C82.5508 44.554 86.253 44.554 88.6019 42.3062V42.3062C90.9508 40.0585 94.653 40.0585 97.0019 42.3062V42.3062C99.3507 44.554 103.053 44.554 105.402 42.3062V42.3062C107.751 40.0585 111.453 40.0585 113.802 42.3062V42.3062C116.151 44.554 119.853 44.554 122.202 42.3062V42.3062C124.551 40.0585 128.253 40.0585 130.602 42.3062V42.3062C132.951 44.554 136.653 44.554 139.002 42.3062V42.3062C141.351 40.0585 145.053 40.0585 147.402 42.3062V42.3062C149.751 44.554 153.453 44.554 155.802 42.3063L156.79 41.3604C158.723 39.511 161.599 39.0511 164.012 40.2057L168.402 42.3062" stroke="black" stroke-width="0.803828" stroke-linejoin="round"/>
<path d="M0.401855 50.3443L4.79199 48.2438C7.20503 47.0892 10.0808 47.5491 12.0135 49.3985L13.0019 50.3443C15.3508 52.5921 19.053 52.5921 21.4019 50.3443V50.3443C23.7508 48.0966 27.453 48.0966 29.8019 50.3443V50.3443C32.1508 52.5921 35.853 52.5921 38.2019 50.3443V50.3443C40.5508 48.0966 44.253 48.0966 46.6019 50.3443V50.3443C48.9507 52.5921 52.653 52.5921 55.0019 50.3443V50.3443C57.3507 48.0966 61.053 48.0966 63.4019 50.3443V50.3443C65.7507 52.5921 69.453 52.5921 71.8019 50.3443V50.3443C74.1507 48.0966 77.853 48.0966 80.2019 50.3443V50.3443C82.5507 52.5921 86.253 52.5921 88.6019 50.3443V50.3443C90.9507 48.0966 94.653 48.0966 97.0019 50.3443V50.3443C99.3507 52.5921 103.053 52.5921 105.402 50.3443V50.3443C107.751 48.0966 111.453 48.0966 113.802 50.3443V50.3443C116.151 52.5921 119.853 52.5921 122.202 50.3443V50.3443C124.551 48.0966 128.253 48.0966 130.602 50.3443V50.3443C132.951 52.5921 136.653 52.5921 139.002 50.3443V50.3443C141.351 48.0966 145.053 48.0966 147.402 50.3443V50.3443C149.751 52.5921 153.453 52.5921 155.802 50.3443L156.79 49.3985C158.723 47.5491 161.599 47.0892 164.012 48.2438L168.402 50.3443" stroke="black" stroke-width="0.803828" stroke-linejoin="round"/>
<path d="M0.401855 58.3824L4.79199 56.2819C7.20503 55.1273 10.0808 55.5872 12.0135 57.4366L13.0019 58.3824C15.3508 60.6302 19.053 60.6302 21.4019 58.3824V58.3824C23.7508 56.1347 27.453 56.1347 29.8019 58.3824V58.3824C32.1508 60.6302 35.853 60.6302 38.2019 58.3824V58.3824C40.5508 56.1347 44.253 56.1347 46.6019 58.3824V58.3824C48.9507 60.6302 52.653 60.6302 55.0019 58.3824V58.3824C57.3507 56.1347 61.053 56.1347 63.4019 58.3824V58.3824C65.7507 60.6302 69.453 60.6302 71.8019 58.3824V58.3824C74.1507 56.1347 77.853 56.1347 80.2019 58.3824V58.3824C82.5507 60.6302 86.253 60.6302 88.6019 58.3824V58.3824C90.9507 56.1347 94.653 56.1347 97.0019 58.3824V58.3824C99.3507 60.6302 103.053 60.6302 105.402 58.3824V58.3824C107.751 56.1347 111.453 56.1347 113.802 58.3824V58.3824C116.151 60.6302 119.853 60.6302 122.202 58.3824V58.3824C124.551 56.1347 128.253 56.1347 130.602 58.3824V58.3824C132.951 60.6302 136.653 60.6302 139.002 58.3824V58.3824C141.351 56.1347 145.053 56.1347 147.402 58.3824V58.3824C149.751 60.6302 153.453 60.6302 155.802 58.3824L156.79 57.4366C158.723 55.5872 161.599 55.1273 164.012 56.2819L168.402 58.3824" stroke="black" stroke-width="0.803828" stroke-linejoin="round"/>
<path d="M0.401855 66.421L4.79199 64.3205C7.20503 63.1659 10.0808 63.6257 12.0135 65.4752L13.0019 66.421C15.3508 68.6687 19.053 68.6687 21.4019 66.421V66.421C23.7508 64.1732 27.453 64.1732 29.8019 66.421V66.421C32.1508 68.6687 35.853 68.6687 38.2019 66.421V66.421C40.5508 64.1732 44.253 64.1732 46.6019 66.421V66.421C48.9507 68.6687 52.653 68.6687 55.0019 66.421V66.421C57.3507 64.1732 61.053 64.1732 63.4019 66.421V66.421C65.7507 68.6687 69.453 68.6687 71.8019 66.421V66.421C74.1507 64.1732 77.853 64.1732 80.2019 66.421V66.421C82.5507 68.6687 86.253 68.6687 88.6019 66.421V66.421C90.9507 64.1732 94.653 64.1732 97.0019 66.421V66.421C99.3507 68.6687 103.053 68.6687 105.402 66.421V66.421C107.751 64.1732 111.453 64.1732 113.802 66.421V66.421C116.151 68.6687 119.853 68.6687 122.202 66.421V66.421C124.551 64.1732 128.253 64.1732 130.602 66.421V66.421C132.951 68.6687 136.653 68.6687 139.002 66.421V66.421C141.351 64.1732 145.053 64.1732 147.402 66.421V66.421C149.751 68.6687 153.453 68.6687 155.802 66.421L156.79 65.4752C158.723 63.6257 161.599 63.1659 164.012 64.3205L168.402 66.421" stroke="black" stroke-width="0.803828" stroke-linejoin="round"/>
<g clip-path="url(#clip0_3001_387782)">
<path d="M47.2248 8.54543C47.2248 9.43331 44.5047 10.354 41.3971 10.354C38.2895 10.354 35.5693 9.43331 35.5693 8.54543C35.5693 7.65755 38.2895 6.73682 41.3971 6.73682C44.5047 6.73682 47.2248 7.65755 47.2248 8.54543Z" stroke="#4D5664" stroke-width="1.20574" stroke-linecap="round" stroke-linejoin="round"/>
<path d="M41.598 14.3731C38.4905 14.3731 35.5693 13.4523 35.5693 12.5645" stroke="#4D5664" stroke-width="1.20574" stroke-linecap="round" stroke-linejoin="round"/>
<path d="M47.2249 12.7655V8.54541" stroke="#4D5664" stroke-width="1.20574" stroke-linecap="round" stroke-linejoin="round"/>
<path d="M41.598 18.3923C38.4905 18.3923 35.5693 17.4716 35.5693 16.5837V8.54541" stroke="#4D5664" stroke-width="1.20574" stroke-linecap="round" stroke-linejoin="round"/>
<path d="M43.9835 14.3862L44.4423 20.0659C44.4673 20.3762 44.8745 20.4734 45.037 20.2079L46.1841 18.3334C46.2406 18.2411 46.3398 18.1834 46.448 18.1799L49.1754 18.0925C49.4842 18.0826 49.6027 17.6854 49.3498 17.5079L44.4887 14.0972C44.2658 13.9408 43.9616 14.1149 43.9835 14.3862Z" fill="white" stroke="#AAB1BD" stroke-width="1.04498"/>
</g>
<path d="M64.0651 16.905V8.22362C64.0651 7.15816 64.9288 6.29443 65.9943 6.29443H74.6756C75.741 6.29443 76.6048 7.15816 76.6048 8.22362V16.905C76.6048 17.9704 75.741 18.8341 74.6756 18.8341H65.9943C64.9288 18.8341 64.0651 17.9704 64.0651 16.905Z" fill="#ECF0F6"/>
<path fill-rule="evenodd" clip-rule="evenodd" d="M76.1225 18.1811C76.0692 18.2416 76.0121 18.2987 75.9516 18.352H70.335V12.5645H76.1225V18.1811Z" fill="white"/>
<path d="M70.335 6.29443V18.8341" stroke="#4D5664" stroke-width="1.15751"/>
<path d="M64.0651 12.5645H76.6048" stroke="#4D5664" stroke-width="1.15751"/>
<path d="M64.0651 16.905V8.22362C64.0651 7.15816 64.9288 6.29443 65.9943 6.29443H74.6756C75.741 6.29443 76.6048 7.15816 76.6048 8.22362V16.905C76.6048 17.9704 75.741 18.8341 74.6756 18.8341H65.9943C64.9288 18.8341 64.0651 17.9704 64.0651 16.905Z" stroke="#4D5664" stroke-width="1.15751"/>
<path d="M92.2794 8.70622L99.2727 5.57129L106.266 8.70622L99.2727 11.8411L92.2794 8.70622Z" stroke="#4D5664" stroke-width="1.44689" stroke-linecap="round" stroke-linejoin="round"/>
<path d="M92.2794 16.4229L99.2727 19.5578L106.266 16.4229" stroke="#4D5664" stroke-width="1.44689" stroke-linecap="round" stroke-linejoin="round"/>
<path d="M106.266 8.70605V16.4228" stroke="#4D5664" stroke-width="1.44689" stroke-linecap="round" stroke-linejoin="round"/>
<path d="M92.2794 8.70605V16.4228" stroke="#4D5664" stroke-width="1.44689" stroke-linecap="round" stroke-linejoin="round"/>
<path d="M99.2727 12.082V19.3165" stroke="#4D5664" stroke-width="1.44689" stroke-linecap="round" stroke-linejoin="round"/>
<g clip-path="url(#clip1_3001_387782)">
<path d="M128.813 6.73682H124.794C123.906 6.73682 123.187 7.45659 123.187 8.34447V16.7847C123.187 17.6725 123.906 18.3923 124.794 18.3923H128.412M128.813 6.73682V9.55021C128.813 10.4381 129.533 11.1579 130.421 11.1579H133.234L128.813 6.73682Z" stroke="#4D5664" stroke-width="1.20574" stroke-linecap="round" stroke-linejoin="round"/>
<path d="M130.797 14.3853L131.255 20.065C131.281 20.3752 131.688 20.4724 131.85 20.2069L132.997 18.3325C133.054 18.2401 133.153 18.1824 133.261 18.1789L135.989 18.0915C136.297 18.0816 136.416 17.6844 136.163 17.507L131.302 14.0962C131.079 13.9398 130.775 14.1139 130.797 14.3853Z" fill="white" stroke="#AAB1BD" stroke-width="1.04498"/>
</g>
<path d="M41.7991 25.0239V34.6699" stroke="#777E89" stroke-width="0.803828" stroke-dasharray="1.61 1.61"/>
<path d="M70.335 23.8179V33.4638" stroke="#777E89" stroke-width="0.803828" stroke-dasharray="1.61 1.61"/>
<path d="M99.2727 23.8179V33.4638" stroke="#777E89" stroke-width="0.803828" stroke-dasharray="1.61 1.61"/>
<path d="M129.014 23.8179V33.4638" stroke="#777E89" stroke-width="0.803828" stroke-dasharray="1.61 1.61"/>
<defs>
<clipPath id="clip0_3001_387782">
<rect width="19.2919" height="19.2919" fill="white" transform="translate(31.7512 2.91846)"/>
</clipPath>
<clipPath id="clip1_3001_387782">
<rect width="19.2919" height="19.2919" fill="white" transform="translate(118.565 2.91846)"/>
</clipPath>
</defs>
</svg>
