<svg width="111" height="26" viewBox="0 0 111 26" fill="none" xmlns="http://www.w3.org/2000/svg">
<g opacity="0.98">
<path d="M5.47451 4.78853H9.12513C9.36703 4.78851 9.59902 4.6924 9.77006 4.52136C9.94111 4.35031 10.0372 4.11832 10.0372 3.87643V1.13793C10.0372 0.896034 10.1333 0.664045 10.3044 0.492996C10.4754 0.321947 10.7074 0.225846 10.9493 0.22583L13.6868 0.22583C13.9287 0.225846 14.1607 0.321947 14.3317 0.492996C14.5028 0.664045 14.5989 0.896034 14.5989 1.13793V3.87643C14.5989 4.11833 14.5028 4.35031 14.3317 4.52136C14.1607 4.69241 13.9287 4.78851 13.6868 4.78853H10.9493C10.7074 4.78854 10.4754 4.88465 10.3044 5.05569C10.1333 5.22674 10.0372 5.45873 10.0372 5.70063V9.35125C10.0372 9.59315 9.94112 9.82515 9.77008 9.99621C9.59903 10.1673 9.36704 10.2634 9.12513 10.2634H5.47451C5.23261 10.2634 5.00062 10.1673 4.82957 9.99624C4.65852 9.82519 4.56241 9.59321 4.56239 9.35131V5.70063C4.56241 5.45873 4.65851 5.22674 4.82957 5.05569C5.00062 4.88465 5.23261 4.78854 5.47451 4.78853V4.78853Z" fill="#020202"/>
<path d="M4.56278 20.2996V16.649C4.56276 16.4071 4.46665 16.1751 4.2956 16.0041C4.12456 15.833 3.89257 15.7369 3.65068 15.7369H0.912162C0.670265 15.7369 0.43828 15.6408 0.267234 15.4697C0.0961891 15.2987 9.04783e-05 15.0667 7.49911e-05 14.8248V12.0874C9.04776e-05 11.8455 0.0961896 11.6135 0.267234 11.4425C0.438279 11.2714 0.670263 11.1753 0.912162 11.1753H3.65068C3.89258 11.1753 4.12457 11.2714 4.29561 11.4425C4.46666 11.6135 4.56276 11.8455 4.56278 12.0874V14.8248C4.5628 15.0667 4.6589 15.2987 4.82995 15.4698C5.001 15.6408 5.23299 15.7369 5.47489 15.7369H9.12549C9.36739 15.7369 9.59937 15.833 9.77042 16.0041C9.94147 16.1751 10.0376 16.4071 10.0376 16.649V20.2996C10.0376 20.5415 9.94148 20.7735 9.77043 20.9446C9.59938 21.1156 9.36739 21.2117 9.12549 21.2117H5.47489C5.23299 21.2117 5.001 21.1156 4.82995 20.9446C4.6589 20.7735 4.5628 20.5415 4.56278 20.2996V20.2996Z" fill="#020202"/>
<path d="M20.074 21.2114H16.4234C16.1815 21.2115 15.9495 21.3076 15.7784 21.4786C15.6074 21.6497 15.5113 21.8816 15.5113 22.1235V24.862C15.5112 25.1039 15.4151 25.3359 15.2441 25.507C15.073 25.678 14.841 25.7741 14.5991 25.7741H11.8617C11.6198 25.7741 11.3878 25.678 11.2168 25.507C11.0458 25.3359 10.9496 25.1039 10.9496 24.862V22.1235C10.9496 21.8816 11.0458 21.6496 11.2168 21.4786C11.3878 21.3075 11.6198 21.2114 11.8617 21.2114H14.5991C14.841 21.2114 15.073 21.1153 15.2441 20.9443C15.4151 20.7732 15.5112 20.5412 15.5113 20.2993V16.6487C15.5113 16.4068 15.6074 16.1748 15.7784 16.0038C15.9495 15.8327 16.1815 15.7366 16.4234 15.7366H20.074C20.3159 15.7366 20.5479 15.8327 20.7189 16.0037C20.89 16.1748 20.9861 16.4068 20.9861 16.6487V20.2993C20.9861 20.5412 20.89 20.7732 20.7189 20.9442C20.5479 21.1153 20.3159 21.2114 20.074 21.2114V21.2114Z" fill="#020202"/>
<path d="M20.9864 5.70021V9.35082C20.9864 9.59272 21.0825 9.8247 21.2535 9.99575C21.4246 10.1668 21.6566 10.2629 21.8985 10.2629H24.637C24.8789 10.2629 25.1109 10.359 25.2819 10.5301C25.453 10.7011 25.5491 10.9331 25.5491 11.175V13.9124C25.5491 14.1543 25.453 14.3863 25.2819 14.5574C25.1109 14.7284 24.8789 14.8245 24.637 14.8245H21.8985C21.6566 14.8245 21.4246 14.7284 21.2535 14.5574C21.0825 14.3863 20.9864 14.1543 20.9864 13.9124V11.175C20.9863 10.9331 20.8902 10.7011 20.7192 10.5301C20.5481 10.359 20.3162 10.2629 20.0743 10.2629H16.4236C16.1817 10.2629 15.9497 10.1668 15.7787 9.99576C15.6076 9.82472 15.5115 9.59273 15.5115 9.35082V5.70021C15.5115 5.45831 15.6076 5.22632 15.7786 5.05527C15.9497 4.88422 16.1817 4.78811 16.4236 4.78809H20.0743C20.3162 4.78811 20.5481 4.88421 20.7192 5.05526C20.8902 5.22632 20.9863 5.45831 20.9864 5.70021V5.70021Z" fill="#020202"/>
</g>
<g clip-path="url(#clip0_3001_387744)">
<path d="M36.1943 18.9125H42.3163C46.5041 18.9125 48.8327 16.152 48.8327 12.0769C48.8327 8.00187 46.5229 5.22256 42.3163 5.22256H36.1943V18.9125ZM38.7107 16.6966V7.41972H42.0159C44.382 7.41972 46.1848 8.67792 46.1848 12.0394C46.1848 15.3445 44.4571 16.6966 42.0159 16.6966H38.7107Z" fill="#121213"/>
<path d="M55.4493 19.1003C58.0032 19.1003 59.8999 17.767 60.2379 15.814H57.8718C57.6464 16.6403 56.7262 17.2412 55.4305 17.2412C53.7967 17.2412 52.7263 16.2459 52.7638 14.4619H60.0689C60.144 14.1426 60.1816 13.6919 60.1816 13.26C60.1816 10.5558 58.36 8.75304 55.4117 8.75304C52.407 8.75304 50.3789 10.8 50.3789 13.9549C50.3789 17.0722 52.4258 19.1003 55.4493 19.1003ZM52.7826 12.8469C52.839 11.4948 53.8718 10.5934 55.3554 10.5934C56.8765 10.5934 57.7779 11.4197 57.7967 12.8469H52.7826Z" fill="#121213"/>
<path d="M71.6115 15.3445H69.2266C69.0951 16.3774 68.1749 17.091 66.8792 17.091C65.3017 17.091 64.2313 16.0393 64.2313 13.9549C64.2313 12.0582 65.1327 10.7624 66.8979 10.7624C68.0059 10.7624 68.9637 11.2694 69.2078 12.415H71.5927C71.3862 10.1802 69.5082 8.75304 66.9355 8.75304C63.837 8.75304 61.8088 10.8187 61.8088 13.9361C61.8088 17.0346 63.837 19.1003 66.8979 19.1003C69.5082 19.1003 71.4613 17.6168 71.6115 15.3445Z" fill="#121213"/>
<path d="M73.2488 7.66385H75.615V5.01599H73.2488V7.66385ZM73.2488 18.9125H75.615V8.94083H73.2488V18.9125Z" fill="#121213"/>
<path d="M77.8383 22.0487H80.2232V17.091H80.3735C80.843 18.2553 82.1199 19.1003 83.8476 19.1003C86.4767 19.1003 88.2419 17.1473 88.2419 13.8985C88.2419 10.7624 86.5706 8.75304 83.8664 8.75304C82.2514 8.75304 80.8993 9.54176 80.3735 10.7624H80.2232L79.9416 8.94083H77.8383V22.0487ZM80.2232 13.4854C80.2232 11.9079 81.4063 10.7624 83.0589 10.7624C84.6927 10.7624 85.8006 11.8328 85.8006 13.8797C85.8006 15.7952 84.8429 17.1097 83.0213 17.1097C81.3688 17.1097 80.2232 15.983 80.2232 14.3868V13.4854Z" fill="#121213"/>
<path d="M89.5314 16.152C89.5314 17.936 90.8647 19.1003 92.8553 19.1003C94.3952 19.1003 95.7661 18.3679 96.2543 17.2975H96.3858C96.4421 18.4806 97.1557 19.0628 98.3576 19.0628C98.7332 19.0628 99.1839 18.9877 99.5782 18.875V17.2036C99.4843 17.2412 99.3341 17.26 99.2214 17.26C98.7332 17.26 98.6581 16.8656 98.6581 16.5651V12.0206C98.6581 9.91734 97.3247 8.75304 94.4328 8.75304C91.7661 8.75304 90.0572 10.1427 90.1136 12.2272H92.367C92.3295 11.2694 93.0994 10.6122 94.3576 10.6122C95.5407 10.6122 96.2731 11.0253 96.2731 12.2084V12.753L93.4938 12.9596C91.0713 13.1286 89.5314 14.1051 89.5314 16.152ZM91.9351 15.9267C91.9351 15.1004 92.4985 14.5746 93.9069 14.4619L96.2731 14.2553V14.8187C96.2731 16.2459 95.2402 17.26 93.6816 17.26C92.6487 17.26 91.9351 16.8281 91.9351 15.9267Z" fill="#121213"/>
<path d="M111 18.9125V5.01599H108.615V10.8751H108.484C107.958 9.65443 106.756 8.75304 104.953 8.75304C102.362 8.75304 100.596 10.7436 100.596 13.9924C100.596 17.1285 102.286 19.1003 104.934 19.1003C106.512 19.1003 107.92 18.3867 108.484 17.1473H108.615L108.897 18.9125H111ZM108.615 14.4243C108.615 15.983 107.488 17.1097 105.742 17.1097C104.108 17.1097 103.038 16.0393 103.038 13.9736C103.038 12.0206 103.995 10.7624 105.779 10.7624C107.413 10.7624 108.615 11.7765 108.615 13.5042V14.4243Z" fill="#121213"/>
</g>
<defs>
<clipPath id="clip0_3001_387744">
<rect width="74.8056" height="18.0972" fill="white" transform="translate(36.1943 3.95142)"/>
</clipPath>
</defs>
</svg>
