<svg width="60" height="60" viewBox="0 0 60 60" fill="none" xmlns="http://www.w3.org/2000/svg">
<g opacity="0.98">
<path d="M13.2072 11.084H21.7166C22.2804 11.084 22.8212 10.86 23.2199 10.4613C23.6186 10.0626 23.8426 9.52181 23.8426 8.95796V2.57468C23.8426 2.01082 24.0666 1.47007 24.4653 1.07136C24.8641 0.672652 25.4048 0.448644 25.9687 0.448608L32.3495 0.448608C32.9134 0.448644 33.4541 0.672652 33.8528 1.07136C34.2515 1.47007 34.4755 2.01082 34.4756 2.57468V8.95796C34.4755 9.52182 34.2515 10.0626 33.8528 10.4613C33.4541 10.86 32.9134 11.084 32.3495 11.084H25.9687C25.4048 11.0841 24.8641 11.3081 24.4653 11.7068C24.0666 12.1055 23.8426 12.6462 23.8426 13.2101V21.7195C23.8426 22.2834 23.6186 22.8241 23.2199 23.2229C22.8212 23.6216 22.2804 23.8456 21.7166 23.8457H13.2072C12.6433 23.8456 12.1025 23.6216 11.7038 23.2229C11.3051 22.8242 11.0811 22.2835 11.081 21.7196V13.2101C11.0811 12.6462 11.3051 12.1055 11.7038 11.7068C12.1025 11.3081 12.6433 11.0841 13.2072 11.084V11.084Z" fill="#020202"/>
<path d="M11.0817 47.2397V38.7303C11.0817 38.1664 10.8577 37.6257 10.459 37.227C10.0603 36.8283 9.51953 36.6043 8.95568 36.6042H2.57234C2.00849 36.6042 1.46774 36.3802 1.06905 35.9815C0.670348 35.5828 0.446347 35.042 0.446311 34.4782V28.0974C0.446347 27.5336 0.670349 26.9928 1.06905 26.5941C1.46774 26.1954 2.00848 25.9714 2.57234 25.9713H8.95568C9.51954 25.9714 10.0603 26.1954 10.459 26.5941C10.8577 26.9928 11.0817 27.5336 11.0817 28.0974V34.4782C11.0818 35.042 11.3058 35.5828 11.7045 35.9815C12.1032 36.3802 12.644 36.6042 13.2078 36.6042H21.7172C22.281 36.6043 22.8218 36.8283 23.2205 37.227C23.6192 37.6257 23.8432 38.1664 23.8433 38.7303V47.2397C23.8432 47.8035 23.6192 48.3443 23.2205 48.743C22.8218 49.1417 22.2811 49.3657 21.7172 49.3658H13.2078C12.644 49.3657 12.1032 49.1417 11.7045 48.743C11.3058 48.3443 11.0818 47.8035 11.0817 47.2397V47.2397Z" fill="#020202"/>
<path d="M47.2379 49.365H38.7285C38.1647 49.3651 37.6239 49.5891 37.2252 49.9878C36.8265 50.3865 36.6025 50.9272 36.6025 51.4911V57.8744C36.6025 58.4382 36.3784 58.979 35.9797 59.3777C35.581 59.7764 35.0402 60.0004 34.4764 60.0004H28.0956C27.5318 60.0004 26.991 59.7764 26.5923 59.3777C26.1936 58.979 25.9696 58.4382 25.9696 57.8744V51.4911C25.9696 50.9272 26.1936 50.3865 26.5923 49.9878C26.991 49.5891 27.5318 49.3651 28.0956 49.365H34.4764C35.0402 49.365 35.581 49.141 35.9797 48.7423C36.3784 48.3436 36.6025 47.8028 36.6025 47.2389V38.7296C36.6025 38.1657 36.8265 37.6249 37.2252 37.2262C37.6239 36.8275 38.1647 36.6034 38.7285 36.6034H47.2379C47.8018 36.6034 48.3425 36.8274 48.7412 37.2261C49.14 37.6248 49.364 38.1656 49.364 38.7294V47.2388C49.364 47.8027 49.14 48.3435 48.7413 48.7422C48.3426 49.141 47.8018 49.365 47.2379 49.365V49.365Z" fill="#020202"/>
<path d="M49.3643 13.2091V21.7185C49.3644 22.2824 49.5884 22.8231 49.9871 23.2218C50.3858 23.6205 50.9265 23.8445 51.4904 23.8445H57.8737C58.4375 23.8446 58.9783 24.0686 59.377 24.4673C59.7757 24.866 59.9997 25.4068 59.9998 25.9706V32.3514C59.9997 32.9153 59.7757 33.456 59.377 33.8547C58.9783 34.2534 58.4375 34.4774 57.8737 34.4775H51.4904C50.9265 34.4774 50.3858 34.2534 49.9871 33.8547C49.5884 33.456 49.3644 32.9153 49.3643 32.3514V25.9706C49.3643 25.4068 49.1403 24.866 48.7416 24.4673C48.3429 24.0686 47.8021 23.8446 47.2382 23.8445H38.7288C38.165 23.8445 37.6242 23.6205 37.2255 23.2218C36.8267 22.8231 36.6027 22.2824 36.6026 21.7185V13.2091C36.6027 12.6453 36.8267 12.1045 37.2254 11.7058C37.6241 11.3071 38.1648 11.0831 38.7287 11.083H47.2382C47.8021 11.0831 48.3429 11.3071 48.7416 11.7058C49.1403 12.1045 49.3643 12.6453 49.3643 13.2091V13.2091Z" fill="#020202"/>
</g>
</svg>
