<svg width="14" height="14" viewBox="0 0 14 14" fill="none" xmlns="http://www.w3.org/2000/svg">
<path d="M5.29016 6.39815C4.65647 7.47001 3.3891 7.47001 2.86102 7.47001C3.3891 7.47001 4.65647 7.68438 5.29016 8.54187C5.92385 9.39936 6.09987 10.6694 6.13508 11.5626C6.13508 10.8837 6.44229 9.26947 6.97999 8.54187C7.61368 7.68438 8.88106 7.47001 9.40913 7.47001C8.88106 7.47001 7.61368 7.47001 6.97999 6.39815C6.38873 5.39804 6.28734 4.16347 6.21693 3.37744C6.14652 4.16347 5.85695 5.43944 5.29016 6.39815Z" stroke="white" stroke-width="0.982216" stroke-linejoin="round"/>
<path d="M9.9401 3.60022C9.58805 4.1957 8.88395 4.1957 8.59058 4.1957C8.88395 4.1957 9.58805 4.31479 9.9401 4.79118C10.2921 5.26756 10.3899 5.74575 10.4095 6.24198C10.4095 5.86484 10.5802 5.1954 10.8789 4.79118C11.2309 4.31479 11.935 4.1957 12.2284 4.1957C11.935 4.1957 11.2309 4.1957 10.8789 3.60022C10.5504 3.0446 10.4486 2.5861 10.4095 2.14941C10.3704 2.5861 10.255 3.06761 9.9401 3.60022Z" stroke="white" stroke-width="0.654811" stroke-linejoin="round"/>
</svg>
