<svg width="206" height="101" viewBox="0 0 206 101" fill="none" xmlns="http://www.w3.org/2000/svg">
<g filter="url(#filter0_i_3023_388181)">
<path d="M0 16C0 7.16345 7.16344 0 16 0H190C198.837 0 206 7.16344 206 16V85C206 93.8366 198.837 101 190 101H16C7.16345 101 0 93.8366 0 85V16Z" fill="white"/>
<path d="M16 0.5H190C198.56 0.5 205.5 7.43959 205.5 16V85C205.5 93.5604 198.56 100.5 190 100.5H16C7.43959 100.5 0.5 93.5604 0.5 85V16C0.5 7.43959 7.43959 0.5 16 0.5Z" stroke="#E5E9F0"/>
<path d="M16 25.5L19.692 16.4H21.382L25.087 25.5H23.475L22.5 22.9H18.522L17.534 25.5H16ZM18.977 21.691H22.045L20.823 18.454C20.706 18.142 20.615 17.882 20.511 17.583C20.42 17.882 20.303 18.155 20.199 18.454L18.977 21.691ZM27.2818 25.5L24.8898 19.195H26.3458L27.8408 23.55C27.9448 23.823 27.9968 24.018 28.0618 24.265C28.1268 24.018 28.1918 23.823 28.2828 23.55L29.7518 19.195H31.1558L28.8028 25.5H27.2818ZM34.7982 25.708C32.9132 25.708 31.6652 24.512 31.6652 22.328C31.6652 20.365 32.9652 18.987 34.7462 18.987C36.6442 18.987 37.7232 20.313 37.7232 22.354V22.64H33.0302C33.0562 23.862 33.7842 24.655 34.8112 24.655C35.5392 24.655 36.1762 24.304 36.3062 23.498H37.6712C37.5412 24.694 36.5532 25.708 34.7982 25.708ZM33.0432 21.678H36.3062C36.2932 20.69 35.7082 20.014 34.7332 20.014C33.7842 20.014 33.1342 20.729 33.0432 21.678ZM39.1262 25.5V19.195H40.4782V19.572C40.4782 19.819 40.4782 20.053 40.4522 20.287C40.7772 19.572 41.4142 18.987 42.3632 18.987C42.4672 18.987 42.5712 18.987 42.6752 19.013V20.326C42.5842 20.313 42.4542 20.287 42.2722 20.287C41.1802 20.287 40.4782 20.872 40.4782 22.263V25.5H39.1262ZM45.453 25.708C44.309 25.708 43.282 24.98 43.282 23.771C43.282 22.445 44.322 21.912 45.557 21.743L46.688 21.574C47.182 21.509 47.351 21.327 47.351 20.976C47.351 20.417 46.909 20.014 46.207 20.014C45.349 20.014 44.868 20.482 44.829 21.197H43.451C43.516 19.962 44.504 18.987 46.116 18.987C47.858 18.987 48.69 19.962 48.69 21.574V25.5H47.429V25.214C47.429 25.019 47.442 24.837 47.455 24.642C47.13 25.279 46.467 25.708 45.453 25.708ZM44.673 23.732C44.673 24.343 45.154 24.694 45.752 24.694C46.675 24.694 47.377 24.044 47.377 23.082V22.276C47.273 22.406 47.039 22.484 46.662 22.549L45.947 22.692C45.206 22.835 44.673 23.121 44.673 23.732ZM53.1172 28.386C51.3492 28.386 50.2832 27.424 50.2832 26.02H51.6352C51.6482 26.813 52.2072 27.333 53.1432 27.333C54.1442 27.333 54.8462 26.774 54.8462 25.63V24.902C54.8462 24.694 54.8592 24.499 54.8722 24.304C54.5212 24.902 53.8192 25.344 52.8572 25.344C51.1672 25.344 50.0102 24.148 50.0102 22.172C50.0102 20.222 51.3232 18.987 52.8442 18.987C53.9232 18.987 54.5212 19.481 54.8722 20.066C54.8592 19.884 54.8462 19.702 54.8462 19.507V19.195H56.1982V25.24C56.1982 27.359 55.0542 28.386 53.1172 28.386ZM51.4012 22.172C51.4012 23.433 52.1292 24.278 53.1692 24.278C54.1962 24.278 54.9372 23.42 54.9372 22.172C54.9372 20.937 54.1962 20.053 53.1692 20.053C52.1292 20.053 51.4012 20.924 51.4012 22.172ZM60.722 25.708C58.837 25.708 57.589 24.512 57.589 22.328C57.589 20.365 58.889 18.987 60.67 18.987C62.568 18.987 63.647 20.313 63.647 22.354V22.64H58.954C58.98 23.862 59.708 24.655 60.735 24.655C61.463 24.655 62.1 24.304 62.23 23.498H63.595C63.465 24.694 62.477 25.708 60.722 25.708ZM58.967 21.678H62.23C62.217 20.69 61.632 20.014 60.657 20.014C59.708 20.014 59.058 20.729 58.967 21.678ZM71.6362 25.708C69.4002 25.708 68.0742 24.434 68.0742 21.99V16.4H69.5172V21.782C69.5172 23.628 70.2452 24.499 71.6362 24.499C73.0142 24.499 73.7552 23.628 73.7552 21.782V16.4H75.1982V21.99C75.1982 24.434 73.8592 25.708 71.6362 25.708ZM79.5945 25.604C78.4505 25.604 77.6705 25.045 77.6705 23.641V20.287H76.3575V19.195H77.6705V17.011H79.0225V19.195H80.4525V20.287H79.0225V23.459C79.0225 24.161 79.3345 24.473 79.9455 24.473C80.1015 24.473 80.2575 24.46 80.4265 24.434V25.513C80.2315 25.565 79.9195 25.604 79.5945 25.604ZM81.7063 25.5V19.195H83.0583V25.5H81.7063ZM81.6543 18.116V16.621H83.1233V18.116H81.6543ZM84.8293 25.5V16.4H86.1813V25.5H84.8293ZM87.9524 25.5V19.195H89.3044V25.5H87.9524ZM87.9004 18.116V16.621H89.3694V18.116H87.9004ZM90.6334 25.5V24.33L93.9484 20.677C94.1044 20.508 94.2214 20.378 94.3514 20.261H90.7764V19.195H95.7944V20.378L92.5054 24.005C92.3754 24.161 92.2324 24.304 92.0894 24.434H95.9114V25.5H90.6334ZM99.0399 25.708C97.8959 25.708 96.8689 24.98 96.8689 23.771C96.8689 22.445 97.9089 21.912 99.1439 21.743L100.275 21.574C100.769 21.509 100.938 21.327 100.938 20.976C100.938 20.417 100.496 20.014 99.7939 20.014C98.9359 20.014 98.4549 20.482 98.4159 21.197H97.0379C97.1029 19.962 98.0909 18.987 99.7029 18.987C101.445 18.987 102.277 19.962 102.277 21.574V25.5H101.016V25.214C101.016 25.019 101.029 24.837 101.042 24.642C100.717 25.279 100.054 25.708 99.0399 25.708ZM98.2599 23.732C98.2599 24.343 98.7409 24.694 99.3389 24.694C100.262 24.694 100.964 24.044 100.964 23.082V22.276C100.86 22.406 100.626 22.484 100.249 22.549L99.5339 22.692C98.7929 22.835 98.2599 23.121 98.2599 23.732ZM106.42 25.604C105.276 25.604 104.496 25.045 104.496 23.641V20.287H103.183V19.195H104.496V17.011H105.848V19.195H107.278V20.287H105.848V23.459C105.848 24.161 106.16 24.473 106.771 24.473C106.927 24.473 107.083 24.46 107.252 24.434V25.513C107.057 25.565 106.745 25.604 106.42 25.604ZM108.531 25.5V19.195H109.883V25.5H108.531ZM108.479 18.116V16.621H109.948V18.116H108.479ZM114.437 25.708C112.578 25.708 111.278 24.408 111.278 22.354C111.278 20.339 112.591 18.987 114.437 18.987C116.296 18.987 117.609 20.339 117.609 22.354C117.609 24.408 116.296 25.708 114.437 25.708ZM112.656 22.354C112.656 23.758 113.345 24.655 114.437 24.655C115.529 24.655 116.231 23.758 116.231 22.354C116.231 20.924 115.516 20.053 114.437 20.053C113.371 20.053 112.656 20.924 112.656 22.354ZM119.005 25.5V19.195H120.357V19.546C120.357 19.715 120.344 19.871 120.331 20.066C120.669 19.481 121.345 18.987 122.268 18.987C123.698 18.987 124.543 19.936 124.543 21.522V25.5H123.191V21.704C123.191 20.651 122.775 20.053 121.904 20.053C120.968 20.053 120.357 20.82 120.357 21.756V25.5H119.005Z" fill="#4D5664"/>
<path d="M178.721 24.4519L179.632 24.5945C180.304 24.6999 180.785 25.3158 180.735 26.0097L180.668 26.9503C180.649 27.2243 180.795 27.4823 181.036 27.6016L181.71 27.9336C181.952 28.0529 182.241 28.0082 182.438 27.8222L183.115 27.1823C183.614 26.7104 184.384 26.7104 184.884 27.1823L185.561 27.8222C185.759 28.0089 186.047 28.0529 186.289 27.9336L186.964 27.6009C187.205 27.4823 187.351 27.225 187.331 26.9517L187.264 26.0097C187.215 25.3158 187.695 24.6999 188.367 24.5945L189.278 24.4519C189.544 24.4106 189.757 24.2072 189.817 23.9393L189.983 23.194C190.043 22.926 189.937 22.6481 189.716 22.4934L188.955 21.9608C188.394 21.5675 188.223 20.7996 188.562 20.1963L189.021 19.379C189.155 19.141 189.132 18.8431 188.965 18.6284L188.499 18.0305C188.332 17.8158 188.053 17.7272 187.796 17.8078L186.915 18.0838C186.264 18.2878 185.57 17.9458 185.32 17.2985L184.982 16.4233C184.883 16.1673 184.641 15.9993 184.372 16L183.625 16.002C183.356 16.0027 183.115 16.172 183.017 16.4286L182.688 17.2939C182.441 17.9452 181.743 18.2898 181.09 18.0845L180.173 17.7965C179.915 17.7152 179.635 17.8045 179.468 18.0205L179.005 18.6191C178.838 18.8357 178.817 19.1344 178.954 19.3724L179.423 20.1916C179.769 20.7956 179.6 21.5708 179.036 21.9661L178.284 22.4927C178.063 22.6481 177.957 22.926 178.017 23.1933L178.183 23.9386C178.242 24.2072 178.456 24.4106 178.721 24.4519Z" stroke="#4D5664" stroke-width="1.2" stroke-linecap="round" stroke-linejoin="round"/>
<path d="M185.061 20.9393C185.646 21.525 185.646 22.475 185.061 23.0607C184.475 23.6464 183.525 23.6464 182.939 23.0607C182.354 22.475 182.354 21.525 182.939 20.9393C183.525 20.3536 184.475 20.3536 185.061 20.9393Z" stroke="#4D5664" stroke-width="1.2" stroke-linecap="round" stroke-linejoin="round"/>
<path d="M23.296 62.384C19.336 62.384 17.128 60.44 17.128 57.608C17.128 55.64 18.472 53.984 20.656 53.288C18.808 52.64 17.56 51.344 17.56 49.472C17.56 46.736 19.792 44.792 23.296 44.792C26.752 44.792 29.008 46.76 29.008 49.4C29.008 51.272 27.808 52.688 25.888 53.288C28.096 53.96 29.464 55.568 29.464 57.512C29.464 60.44 27.112 62.384 23.296 62.384ZM19.72 57.32C19.72 59.096 21.184 60.296 23.296 60.296C25.384 60.296 26.848 59.12 26.848 57.344C26.848 55.664 25.384 54.416 23.296 54.416C21.208 54.416 19.72 55.64 19.72 57.32ZM20.128 49.472C20.128 51.08 21.4 52.184 23.296 52.184C25.144 52.184 26.44 51.104 26.44 49.544C26.44 47.96 25.192 46.88 23.296 46.88C21.376 46.88 20.128 47.96 20.128 49.472ZM38.9781 62V57.8H31.1541V55.496L38.1861 45.2H41.5461V55.568H44.6181V57.8H41.5461V62H38.9781ZM33.6021 55.568H38.9781V47.6C38.7621 48.008 38.5221 48.368 38.2581 48.752L34.2501 54.656C34.0341 54.968 33.7941 55.328 33.6021 55.568ZM49.2229 53C46.9669 53 45.4069 51.368 45.4069 48.968C45.4069 46.568 46.9669 44.936 49.2229 44.936C51.4789 44.936 53.0629 46.568 53.0629 48.968C53.0629 51.368 51.4789 53 49.2229 53ZM46.7029 62L58.8709 45.2H61.2709L49.0789 62H46.7029ZM47.4709 48.968C47.4709 50.312 48.1669 51.248 49.2229 51.248C50.2549 51.248 50.9749 50.312 50.9749 48.968C50.9749 47.6 50.2549 46.64 49.2229 46.64C48.1669 46.64 47.4709 47.6 47.4709 48.968ZM54.9349 58.184C54.9349 55.808 56.4709 54.152 58.7509 54.152C61.0309 54.152 62.5669 55.808 62.5669 58.184C62.5669 60.584 61.0309 62.24 58.7509 62.24C56.4709 62.24 54.9349 60.584 54.9349 58.184ZM56.9989 58.184C56.9989 59.552 57.7189 60.488 58.7509 60.488C59.7829 60.488 60.5029 59.552 60.5029 58.184C60.5029 56.816 59.7829 55.856 58.7509 55.856C57.7189 55.856 56.9989 56.816 56.9989 58.184Z" fill="#161F2C"/>
<path d="M23.9999 86L23.9999 79" stroke="#749640" stroke-width="1.4" stroke-linecap="round"/>
<path d="M24.4242 76.4243L26.9757 78.9757C27.3537 79.3537 27.086 80 26.5514 80H21.4485C20.9139 80 20.6462 79.3537 21.0242 78.9757L23.5757 76.4243C23.81 76.1899 24.1899 76.1899 24.4242 76.4243Z" fill="#749640"/>
<path d="M36.244 79.12C36.244 78.88 36.256 78.652 36.268 78.412C35.884 79.06 35.176 79.54 34.3 79.576V78.328C35.332 78.196 36.196 77.524 36.436 76.6H37.528V85H36.244V79.12ZM39.0272 85C39.0512 83.512 39.8192 82.768 41.1752 81.772L41.9912 81.16C42.8072 80.56 43.5632 79.888 43.5632 78.94C43.5632 78.064 43.0112 77.464 42.0992 77.464C41.0792 77.464 40.4672 78.172 40.4672 79.42V79.54H39.1232V79.36C39.1232 77.536 40.3232 76.396 42.0992 76.396C43.7792 76.396 44.8712 77.428 44.8712 78.94C44.8712 80.344 43.9352 81.232 42.5432 82.252L41.9672 82.672C41.1632 83.26 40.8152 83.548 40.7192 83.812H44.9432V85H39.0272ZM50.4357 80.5C49.3077 80.5 48.5277 79.684 48.5277 78.484C48.5277 77.284 49.3077 76.468 50.4357 76.468C51.5637 76.468 52.3557 77.284 52.3557 78.484C52.3557 79.684 51.5637 80.5 50.4357 80.5ZM49.1757 85L55.2597 76.6H56.4597L50.3637 85H49.1757ZM49.5597 78.484C49.5597 79.156 49.9077 79.624 50.4357 79.624C50.9517 79.624 51.3117 79.156 51.3117 78.484C51.3117 77.8 50.9517 77.32 50.4357 77.32C49.9077 77.32 49.5597 77.8 49.5597 78.484ZM53.2917 83.092C53.2917 81.904 54.0597 81.076 55.1997 81.076C56.3397 81.076 57.1077 81.904 57.1077 83.092C57.1077 84.292 56.3397 85.12 55.1997 85.12C54.0597 85.12 53.2917 84.292 53.2917 83.092ZM54.3237 83.092C54.3237 83.776 54.6837 84.244 55.1997 84.244C55.7157 84.244 56.0757 83.776 56.0757 83.092C56.0757 82.408 55.7157 81.928 55.1997 81.928C54.6837 81.928 54.3237 82.408 54.3237 83.092Z" fill="#749640"/>
<path d="M63.5403 85.192C61.8243 85.192 60.6243 84.076 60.6243 82.084C60.6243 80.188 61.9202 78.988 63.6003 78.988C65.1363 78.988 66.1083 79.912 66.2403 81.256H64.9683C64.8963 80.548 64.4283 79.972 63.5883 79.972C62.6043 79.972 61.8963 80.812 61.8963 82.084C61.8963 83.356 62.5683 84.22 63.5763 84.22C64.4523 84.22 64.9443 83.668 65.0403 82.912H66.2883C66.1323 84.28 65.1963 85.192 63.5403 85.192ZM70.0559 85.192C68.3399 85.192 67.1399 83.992 67.1399 82.096C67.1399 80.236 68.3519 78.988 70.0559 78.988C71.7719 78.988 72.9839 80.236 72.9839 82.096C72.9839 83.992 71.7719 85.192 70.0559 85.192ZM68.4119 82.096C68.4119 83.392 69.0479 84.22 70.0559 84.22C71.0639 84.22 71.7119 83.392 71.7119 82.096C71.7119 80.776 71.0519 79.972 70.0559 79.972C69.0719 79.972 68.4119 80.776 68.4119 82.096ZM74.273 85V79.18H75.521V79.54C75.521 79.684 75.521 79.84 75.497 79.984C75.821 79.444 76.385 78.988 77.189 78.988C77.933 78.988 78.557 79.456 78.833 80.104C79.193 79.48 79.877 78.988 80.717 78.988C81.893 78.988 82.745 79.816 82.745 81.328V85H81.497V81.532C81.497 80.56 81.161 79.972 80.405 79.972C79.625 79.972 79.133 80.668 79.133 81.568V85H77.885V81.556C77.885 80.572 77.561 79.972 76.805 79.972C76.037 79.972 75.521 80.656 75.521 81.592V85H74.273ZM84.316 87.472V79.18H85.564V79.516C85.564 79.672 85.564 79.816 85.54 79.996C85.888 79.42 86.56 78.988 87.46 78.988C89.068 78.988 90.076 80.284 90.076 82.096C90.076 83.968 88.96 85.192 87.412 85.192C86.512 85.192 85.912 84.784 85.54 84.196C85.564 84.388 85.564 84.544 85.564 84.712V87.472H84.316ZM85.504 82.084C85.504 83.356 86.188 84.22 87.16 84.22C88.144 84.22 88.792 83.344 88.792 82.084C88.792 80.848 88.156 79.972 87.16 79.972C86.2 79.972 85.504 80.788 85.504 82.084ZM93.0273 85.192C91.9713 85.192 91.0233 84.52 91.0233 83.404C91.0233 82.18 91.9833 81.688 93.1233 81.532L94.1673 81.376C94.6233 81.316 94.7793 81.148 94.7793 80.824C94.7793 80.308 94.3713 79.936 93.7233 79.936C92.9313 79.936 92.4873 80.368 92.4513 81.028H91.1793C91.2393 79.888 92.1513 78.988 93.6393 78.988C95.2473 78.988 96.0153 79.888 96.0153 81.376V85H94.8513V84.736C94.8513 84.556 94.8633 84.388 94.8753 84.208C94.5753 84.796 93.9633 85.192 93.0273 85.192ZM92.3073 83.368C92.3073 83.932 92.7513 84.256 93.3033 84.256C94.1553 84.256 94.8033 83.656 94.8033 82.768V82.024C94.7073 82.144 94.4913 82.216 94.1433 82.276L93.4833 82.408C92.7993 82.54 92.3073 82.804 92.3073 83.368ZM97.5699 85V79.18H98.8179V79.528C98.8179 79.756 98.8179 79.972 98.7939 80.188C99.0939 79.528 99.6819 78.988 100.558 78.988C100.654 78.988 100.75 78.988 100.846 79.012V80.224C100.762 80.212 100.642 80.188 100.474 80.188C99.4659 80.188 98.8179 80.728 98.8179 82.012V85H97.5699ZM104.262 85.192C102.522 85.192 101.37 84.088 101.37 82.072C101.37 80.26 102.57 78.988 104.214 78.988C105.966 78.988 106.962 80.212 106.962 82.096V82.36H102.63C102.654 83.488 103.326 84.22 104.274 84.22C104.946 84.22 105.534 83.896 105.654 83.152H106.914C106.794 84.256 105.882 85.192 104.262 85.192ZM102.642 81.472H105.654C105.642 80.56 105.102 79.936 104.202 79.936C103.326 79.936 102.726 80.596 102.642 81.472ZM110.585 85.192C109.049 85.192 107.909 84.112 107.909 82.096C107.909 80.176 109.097 78.988 110.609 78.988C111.545 78.988 112.145 79.48 112.445 79.984C112.421 79.804 112.421 79.636 112.421 79.468V76.6H113.669V85H112.421V84.712C112.421 84.52 112.421 84.364 112.445 84.196C112.169 84.676 111.557 85.192 110.585 85.192ZM109.193 82.096C109.193 83.38 109.877 84.22 110.849 84.22C111.797 84.22 112.493 83.368 112.493 82.084C112.493 80.8 111.809 79.972 110.849 79.972C109.889 79.972 109.193 80.836 109.193 82.096ZM120.089 85.096C119.033 85.096 118.313 84.58 118.313 83.284V80.188H117.101V79.18H118.313V77.164H119.561V79.18H120.881V80.188H119.561V83.116C119.561 83.764 119.849 84.052 120.413 84.052C120.557 84.052 120.701 84.04 120.857 84.016V85.012C120.677 85.06 120.389 85.096 120.089 85.096ZM124.536 85.192C122.82 85.192 121.62 83.992 121.62 82.096C121.62 80.236 122.832 78.988 124.536 78.988C126.252 78.988 127.464 80.236 127.464 82.096C127.464 83.992 126.252 85.192 124.536 85.192ZM122.892 82.096C122.892 83.392 123.528 84.22 124.536 84.22C125.544 84.22 126.192 83.392 126.192 82.096C126.192 80.776 125.532 79.972 124.536 79.972C123.552 79.972 122.892 80.776 122.892 82.096ZM131.437 85V76.6H132.685V85H131.437ZM136 85.192C134.944 85.192 133.996 84.52 133.996 83.404C133.996 82.18 134.956 81.688 136.096 81.532L137.14 81.376C137.596 81.316 137.752 81.148 137.752 80.824C137.752 80.308 137.344 79.936 136.696 79.936C135.904 79.936 135.46 80.368 135.424 81.028H134.152C134.212 79.888 135.124 78.988 136.612 78.988C138.22 78.988 138.988 79.888 138.988 81.376V85H137.824V84.736C137.824 84.556 137.836 84.388 137.848 84.208C137.548 84.796 136.936 85.192 136 85.192ZM135.28 83.368C135.28 83.932 135.724 84.256 136.276 84.256C137.128 84.256 137.776 83.656 137.776 82.768V82.024C137.68 82.144 137.464 82.216 137.116 82.276L136.456 82.408C135.772 82.54 135.28 82.804 135.28 83.368ZM142.727 85.192C141.119 85.192 140.159 84.34 140.099 83.032H141.347C141.383 83.776 141.863 84.244 142.715 84.244C143.447 84.244 143.927 83.908 143.927 83.392C143.927 82.972 143.603 82.732 142.943 82.6L142.151 82.444C140.999 82.228 140.303 81.664 140.303 80.728C140.303 79.732 141.251 78.988 142.631 78.988C144.107 78.988 145.019 79.732 145.079 80.932H143.831C143.771 80.296 143.315 79.936 142.595 79.936C141.971 79.936 141.539 80.212 141.539 80.668C141.539 81.076 141.827 81.28 142.523 81.412L143.327 81.568C144.419 81.784 145.151 82.3 145.151 83.296C145.151 84.376 144.227 85.192 142.727 85.192ZM148.683 85.096C147.627 85.096 146.907 84.58 146.907 83.284V80.188H145.695V79.18H146.907V77.164H148.155V79.18H149.475V80.188H148.155V83.116C148.155 83.764 148.443 84.052 149.007 84.052C149.151 84.052 149.295 84.04 149.451 84.016V85.012C149.271 85.06 148.983 85.096 148.683 85.096ZM153.316 85V79.18H154.564V79.54C154.564 79.684 154.564 79.84 154.54 79.984C154.864 79.444 155.428 78.988 156.232 78.988C156.976 78.988 157.6 79.456 157.876 80.104C158.236 79.48 158.92 78.988 159.76 78.988C160.936 78.988 161.788 79.816 161.788 81.328V85H160.54V81.532C160.54 80.56 160.204 79.972 159.448 79.972C158.668 79.972 158.176 80.668 158.176 81.568V85H156.928V81.556C156.928 80.572 156.604 79.972 155.848 79.972C155.08 79.972 154.564 80.656 154.564 81.592V85H153.316ZM165.927 85.192C164.211 85.192 163.011 83.992 163.011 82.096C163.011 80.236 164.223 78.988 165.927 78.988C167.643 78.988 168.855 80.236 168.855 82.096C168.855 83.992 167.643 85.192 165.927 85.192ZM164.283 82.096C164.283 83.392 164.919 84.22 165.927 84.22C166.935 84.22 167.583 83.392 167.583 82.096C167.583 80.776 166.923 79.972 165.927 79.972C164.943 79.972 164.283 80.776 164.283 82.096ZM170.144 85V79.18H171.392V79.504C171.392 79.66 171.38 79.804 171.368 79.984C171.68 79.444 172.304 78.988 173.156 78.988C174.476 78.988 175.256 79.864 175.256 81.328V85H174.008V81.496C174.008 80.524 173.624 79.972 172.82 79.972C171.956 79.972 171.392 80.68 171.392 81.544V85H170.144ZM179.093 85.096C178.037 85.096 177.317 84.58 177.317 83.284V80.188H176.105V79.18H177.317V77.164H178.565V79.18H179.885V80.188H178.565V83.116C178.565 83.764 178.853 84.052 179.417 84.052C179.561 84.052 179.705 84.04 179.861 84.016V85.012C179.681 85.06 179.393 85.096 179.093 85.096ZM181.043 85V76.6H182.291V79.456C182.291 79.624 182.291 79.792 182.267 79.984C182.591 79.42 183.203 78.988 184.055 78.988C185.375 78.988 186.155 79.864 186.155 81.328V85H184.907V81.496C184.907 80.524 184.511 79.972 183.707 79.972C182.855 79.972 182.291 80.68 182.291 81.544V85H181.043Z" fill="#4D5664"/>
</g>
<defs>
<filter id="filter0_i_3023_388181" x="0" y="0" width="206" height="101" filterUnits="userSpaceOnUse" color-interpolation-filters="sRGB">
<feFlood flood-opacity="0" result="BackgroundImageFix"/>
<feBlend mode="normal" in="SourceGraphic" in2="BackgroundImageFix" result="shape"/>
<feColorMatrix in="SourceAlpha" type="matrix" values="0 0 0 0 0 0 0 0 0 0 0 0 0 0 0 0 0 0 127 0" result="hardAlpha"/>
<feOffset dy="-2"/>
<feComposite in2="hardAlpha" operator="arithmetic" k2="-1" k3="1"/>
<feColorMatrix type="matrix" values="0 0 0 0 0.898039 0 0 0 0 0.913725 0 0 0 0 0.941176 0 0 0 1 0"/>
<feBlend mode="normal" in2="shape" result="effect1_innerShadow_3023_388181"/>
</filter>
</defs>
</svg>
